<?xml version="1.0" encoding="UTF-8" standalone="no"?>
<!-- Created with Inkscape (http://www.inkscape.org/) -->
<svg
   xmlns:svg="http://www.w3.org/2000/svg"
   xmlns="http://www.w3.org/2000/svg"
   version="1.0"
   width="425.69638"
   height="165.92859"
   id="svg2732">
  <defs
     id="defs2734" />
  <g
     transform="translate(-261.43753,-403.6836)"
     id="layer1">
    <g
       transform="matrix(1.249992,0,0,-1.249992,448.26137,414.55162)"
       id="content"
       xml:space="preserve"
       style="font-style:normal;font-variant:normal;font-weight:normal;font-stretch:normal;letter-spacing:normal;word-spacing:normal;text-anchor:start;fill:none;fill-opacity:1;stroke:#000000;stroke-linecap:butt;stroke-linejoin:miter;stroke-miterlimit:10.43299961;stroke-dasharray:none;stroke-dashoffset:0;stroke-opacity:1">
<text
   transform="scale(0.54545,-0.54545)"
   id="text2659"
   style="font-size:20px;fill:#000000;stroke:none;font-family:'Helvetica,sans-serif'">electrons</text>

<polygon
   points="153.27,767.38 187.29,767.38 187.29,801.4 153.27,801.4 153.27,767.38 "
   transform="translate(-149.46,-830.92)"
   id="polygon2661"
   style="fill:#7f7f7f;fill-rule:nonzero;stroke:#7f7f7f;stroke-width:0" />
<polygon
   points="153.27,767.38 187.29,767.38 187.29,801.4 153.27,801.4 153.27,767.38 "
   transform="translate(-149.46,-830.92)"
   id="polygon2663"
   style="stroke-width:0.3985" />
<polygon
   points="156.1,770.22 184.45,770.22 184.45,798.56 156.1,798.56 156.1,770.22 "
   transform="translate(-149.46,-830.92)"
   id="polygon2665"
   style="fill:#ffffff;fill-rule:nonzero;stroke:#ffffff;stroke-width:0" />
<polygon
   points="156.1,770.22 184.45,770.22 184.45,798.56 156.1,798.56 156.1,770.22 "
   transform="translate(-149.46,-830.92)"
   id="polygon2667"
   style="stroke-width:0.3985" />
<text
   transform="matrix(0.54545,0,0,-0.54545,16.412,-50.261)"
   id="text2669"
   style="font-size:20px;fill:#000000;stroke:none;font-family:'Helvetica,sans-serif'">B</text>

<path
   d="M 181.82,784.39 L 181.8,784.98 L 181.76,785.55 L 181.69,786.12 L 181.59,786.68 L 181.46,787.23 L 181.31,787.77 L 181.13,788.3 L 180.93,788.82 L 180.7,789.32 L 180.45,789.81 L 180.18,790.28 L 179.89,790.74 L 179.57,791.19 L 179.24,791.61 L 178.88,792.02 L 178.51,792.42 L 178.11,792.79 L 177.7,793.15 L 177.28,793.48 L 176.83,793.8 L 176.37,794.09 L 175.9,794.36 L 175.41,794.61 L 174.91,794.84 L 174.39,795.04 L 173.86,795.22 L 173.32,795.37 L 172.77,795.5 L 172.21,795.6 L 171.64,795.67 L 171.07,795.71 L 170.48,795.73 C 164.19,795.73 159.14,790.68 159.14,784.39 C 159.14,778.1 164.19,773.05 170.48,773.05 C 175.29,773.05 179.49,776 180.98,780.08"
   transform="translate(-149.46,-830.92)"
   id="path2671"
   style="stroke:#0000ff;stroke-width:0.3985" />
<path
   d="M 179.07,779.5 L 179.12,779.49 L 179.18,779.49 L 179.25,779.49 L 179.32,779.5 L 179.39,779.5 L 179.46,779.52 L 179.53,779.53 L 179.61,779.55 L 179.68,779.58 L 179.76,779.6 L 179.84,779.63 L 179.91,779.66 L 179.99,779.69 L 180.07,779.72 L 180.22,779.8 L 180.3,779.83 L 180.37,779.87 L 180.44,779.91 L 180.51,779.95 L 180.58,779.99 L 180.65,780.03 L 180.71,780.07 L 180.77,780.11 L 180.82,780.14 L 180.87,780.18 L 180.92,780.21 L 180.96,780.25 L 181,780.28 L 181.03,780.31 L 181.06,780.33 L 181.07,780.35 L 181.08,780.36 C 181.07,780.05 181.54,778.71 182.07,778.41"
   transform="translate(-149.46,-830.92)"
   id="path2673"
   style="stroke:#0000ff;stroke-width:0.31920001;stroke-linecap:round;stroke-linejoin:round" />
<polygon
   points="32.93,803.25 117.97,803.25 117.97,806.09 32.93,806.09 32.93,803.25 "
   transform="translate(-149.46,-830.92)"
   id="polygon2675"
   style="fill:#7f7f7f;fill-rule:nonzero;stroke:#7f7f7f;stroke-width:0" />
<polygon
   points="32.93,803.25 117.97,803.25 117.97,806.09 32.93,806.09 32.93,803.25 "
   transform="translate(-149.46,-830.92)"
   id="polygon2677"
   style="stroke-width:0.3985" />
<polygon
   points="222.59,803.25 307.63,803.25 307.63,806.09 222.59,806.09 222.59,803.25 "
   transform="translate(-149.46,-830.92)"
   id="polygon2679"
   style="fill:#7f7f7f;fill-rule:nonzero;stroke:#7f7f7f;stroke-width:0" />
<polygon
   points="222.59,803.25 307.63,803.25 307.63,806.09 222.59,806.09 222.59,803.25 "
   transform="translate(-149.46,-830.92)"
   id="polygon2681"
   style="stroke-width:0.3985" />
<polygon
   points="128.43,803.25 212.13,803.25 212.13,806.09 128.43,806.09 128.43,803.25 "
   transform="translate(-149.46,-830.92)"
   id="polygon2683"
   style="fill:#7f7f7f;fill-rule:nonzero;stroke:#7f7f7f;stroke-width:0" />
<polygon
   points="128.43,803.25 212.13,803.25 212.13,806.09 128.43,806.09 128.43,803.25 "
   transform="translate(-149.46,-830.92)"
   id="polygon2685"
   style="stroke-width:0.3985" />
<polygon
   points="0.19922,707.07 340.36,707.07 340.36,709.91 0.19922,709.91 0.19922,707.07 "
   transform="translate(-149.46,-830.92)"
   id="polygon2687"
   style="fill:#7f7f7f;fill-rule:nonzero;stroke:#7f7f7f;stroke-width:0" />
<polygon
   points="0.19922,707.07 340.36,707.07 340.36,709.91 0.19922,709.91 0.19922,707.07 "
   transform="translate(-149.46,-830.92)"
   id="polygon2689"
   style="stroke-width:0.3985" />
<text
   transform="matrix(0.54545,0,0,-0.54545,113.49,-120.53)"
   id="text2691"
   style="font-size:20px;fill:#000000;stroke:none;font-family:'Helvetica,sans-serif'">screen</text>

<text
   transform="matrix(0.54545,0,0,-0.54545,-44.488,-116.27)"
   id="text2693"
   style="font-size:20px;fill:#000000;stroke:none;font-family:'Helvetica,sans-serif'">in</text>

<text
   transform="matrix(0.54545,0,0,-0.54545,-35.855,-116.27)"
   id="text2695"
   style="font-size:20px;fill:#000000;stroke:none;font-family:'Helvetica,sans-serif'">terference</text>

<path
   d="M 145.64,833.41 C 133.05,828.77 126,820.28 123.81,807.52"
   transform="translate(-149.46,-830.92)"
   id="path2697"
   style="stroke:#ff0000;stroke-width:0.3985" />
<path
   d="M 125.58,808.43 L 125.52,808.42 L 125.46,808.42 L 125.4,808.4 L 125.34,808.39 L 125.27,808.37 L 125.2,808.34 L 125.13,808.31 L 125.06,808.28 L 124.99,808.24 L 124.92,808.2 L 124.85,808.16 L 124.78,808.12 L 124.71,808.07 L 124.64,808.03 L 124.5,807.93 L 124.43,807.88 L 124.37,807.83 L 124.3,807.78 L 124.24,807.73 L 124.18,807.68 L 124.12,807.63 L 124.07,807.58 L 124.02,807.53 L 123.97,807.48 L 123.93,807.44 L 123.89,807.39 L 123.85,807.35 L 123.82,807.32 L 123.8,807.28 L 123.77,807.25 L 123.77,807.24 L 123.76,807.22 C 123.71,807.53 123.01,808.77 122.44,808.97"
   transform="translate(-149.46,-830.92)"
   id="path2699"
   style="stroke:#ff0000;stroke-width:0.31889001;stroke-linecap:round;stroke-linejoin:round" />
<text
   transform="matrix(0.54545,0,0,-0.54545,-63.296,-4.423)"
   id="text2701"
   style="font-size:20px;fill:#000000;stroke:none;font-family:'Helvetica,sans-serif'">path</text>

<text
   transform="matrix(0.54545,0,0,-0.54545,-37.986,-4.423)"
   id="text2703"
   style="font-size:20px;fill:#000000;stroke:none;font-family:'Helvetica,sans-serif'">one</text>

<path
   d="M 194.92,833.41 C 207.5,828.77 214.56,820.28 216.75,807.52"
   transform="translate(-149.46,-830.92)"
   id="path2705"
   style="stroke:#ff0000;stroke-width:0.3985" />
<path
   d="M 218.12,808.97 L 218.07,808.94 L 218.01,808.92 L 217.96,808.88 L 217.9,808.85 L 217.85,808.8 L 217.79,808.76 L 217.73,808.71 L 217.68,808.65 L 217.62,808.59 L 217.57,808.53 L 217.52,808.47 L 217.46,808.41 L 217.41,808.34 L 217.36,808.27 L 217.26,808.13 L 217.22,808.07 L 217.17,808 L 217.13,807.93 L 217.09,807.86 L 217.05,807.79 L 217.01,807.72 L 216.98,807.66 L 216.95,807.6 L 216.92,807.54 L 216.89,807.48 L 216.87,807.43 L 216.85,807.38 L 216.83,807.33 L 216.82,807.29 L 216.81,807.25 L 216.8,807.24 L 216.8,807.22 C 216.65,807.5 215.59,808.43 214.98,808.43"
   transform="translate(-149.46,-830.92)"
   id="path2707"
   style="stroke:#ff0000;stroke-width:0.31889001;stroke-linecap:round;stroke-linejoin:round" />
<text
   transform="matrix(0.54545,0,0,-0.54545,63.359,-4.423)"
   id="text2709"
   style="font-size:20px;fill:#000000;stroke:none;font-family:'Helvetica,sans-serif'">path</text>

<text
   transform="matrix(0.54545,0,0,-0.54545,88.669,-4.423)"
   id="text2711"
   style="font-size:20px;fill:#000000;stroke:none;font-family:'Helvetica,sans-serif'">t</text>

<text
   transform="matrix(0.54545,0,0,-0.54545,92.508,-4.423)"
   id="text2713"
   style="font-size:20px;fill:#000000;stroke:none;font-family:'Helvetica,sans-serif'">w</text>

<text
   transform="matrix(0.54545,0,0,-0.54545,99.945,-4.423)"
   id="text2715"
   style="font-size:20px;fill:#000000;stroke:none;font-family:'Helvetica,sans-serif'">o</text>

<line
   transform="translate(-149.46,-830.92)"
   x1="123.77"
   y1="799.42999"
   x2="168.09"
   y2="714.13"
   id="line2717"
   style="stroke:#ff0000;stroke-width:0.3985" />
<path
   d="M 168.95,715.93 L 168.91,715.9 L 168.86,715.85 L 168.82,715.81 L 168.78,715.75 L 168.74,715.69 L 168.7,715.63 L 168.66,715.57 L 168.63,715.5 L 168.59,715.43 L 168.56,715.35 L 168.53,715.28 L 168.5,715.2 L 168.47,715.12 L 168.44,715.04 L 168.39,714.88 L 168.37,714.8 L 168.34,714.72 L 168.32,714.64 L 168.31,714.56 L 168.29,714.48 L 168.28,714.41 L 168.26,714.34 L 168.25,714.27 L 168.24,714.2 L 168.23,714.14 L 168.23,714.08 L 168.22,714.03 L 168.22,713.98 L 168.22,713.93 L 168.22,713.9 L 168.22,713.88 L 168.23,713.86 C 168,714.08 166.69,714.65 166.11,714.46"
   transform="translate(-149.46,-830.92)"
   id="path2719"
   style="stroke:#ff0000;stroke-width:0.32003;stroke-linecap:round;stroke-linejoin:round" />
<line
   transform="translate(-149.46,-830.92)"
   x1="216.8"
   y1="799.42999"
   x2="172.47"
   y2="714.13"
   id="line2721"
   style="stroke:#ff0000;stroke-width:0.3985" />
<path
   d="M 174.45,714.46 L 174.39,714.47 L 174.33,714.48 L 174.26,714.49 L 174.2,714.49 L 174.13,714.49 L 174.06,714.49 L 173.98,714.48 L 173.9,714.47 L 173.82,714.46 L 173.75,714.45 L 173.66,714.43 L 173.58,714.41 L 173.5,714.39 L 173.42,714.36 L 173.26,714.31 L 173.18,714.28 L 173.1,714.26 L 173.02,714.23 L 172.95,714.2 L 172.88,714.17 L 172.81,714.14 L 172.74,714.11 L 172.68,714.07 L 172.62,714.04 L 172.57,714.02 L 172.51,713.99 L 172.47,713.96 L 172.43,713.93 L 172.39,713.91 L 172.36,713.88 L 172.35,713.87 L 172.34,713.86 C 172.38,714.18 172.09,715.57 171.6,715.93"
   transform="translate(-149.46,-830.92)"
   id="path2723"
   style="stroke:#ff0000;stroke-width:0.32003;stroke-linecap:round;stroke-linejoin:round" />
</g>  </g>
</svg>
