<?xml version="1.0" encoding="UTF-8"?>
<svg xmlns="http://www.w3.org/2000/svg" version="1.1" width="520" height="473">
<style type="text/css">path{stroke-linecap:round;stroke-linejoin:round;fill:none}text{font-family:"Times New Roman",serif;font-weight:bold}</style>

<rect x="0" y="0" width="520" height="473" fill="#fff"/>
<rect x="0" y="432" width="520" height="41" fill="#c0c0c0"/>

<clipPath id="a"><rect x="0" y="0" width="520" height="429"/></clipPath>
<g clip-path="url(#a)" fill="#f00" stroke="#000" stroke-width="1">
  <circle r="24.25" cx="59.5" cy="50"/>
  <circle r="24.25" cx="170.5" cy="14"/>
  <circle r="24.25" cx="291.5" cy="42"/>
  <circle r="24.25" cx="403.5" cy="11"/>
  <circle r="24.25" cx="498.5" cy="46"/>
	
  <circle r="24.25" cx="61.5" cy="144"/>
  <circle r="24.25" cx="172.5" cy="94"/>
  <circle r="24.25" cx="293.5" cy="136"/>
  <circle r="24.25" cx="404.5" cy="86"/>
  <circle r="24.25" cx="500.5" cy="140"/>
	
  <circle r="24.25" cx="60.5" cy="245"/>
  <circle r="24.25" cx="174.5" cy="188"/>
  <circle r="24.25" cx="292.5" cy="237"/>
  <circle r="24.25" cx="406.5" cy="180"/>
  <circle r="24.25" cx="499.5" cy="241"/>
	
  <circle r="24.25" cx="60.5" cy="343"/>
  <circle r="24.25" cx="173.5" cy="289"/>
  <circle r="24.25" cx="292.5" cy="335"/>
  <circle r="24.25" cx="405.5" cy="281"/>
  <circle r="24.25" cx="499.5" cy="339"/>
	
  <circle r="24.25" cx="61.5" cy="430"/>
  <circle r="24.25" cx="173.5" cy="387"/>
  <circle r="24.25" cx="292.5" cy="430"/>
  <circle r="24.25" cx="405.5" cy="379"/>
  <circle r="24.25" cx="500.5" cy="430"/>
</g>

<g fill="#00f">
  <circle r="5" cx="25" cy="90"/>
  <circle r="5" cx="88" cy="190"/>
  <circle r="5" cx="33" cy="289"/>
  <circle r="5" cx="157" cy="420"/>
	
  <circle r="5" cx="241" cy="84"/>
  <circle r="5" cx="242" cy="196"/>
  <circle r="5" cx="235" cy="312"/>
	
  <circle r="5" cx="355" cy="10"/>
  <circle r="5" cx="349" cy="248"/>
  <circle r="5" cx="325" cy="390"/>
	
  <circle r="5" cx="457" cy="123"/>
  <circle r="5" cx="512" cy="285"/>
</g>

<path stroke="#00f" stroke-width="1" d="
	M 1.5 41.5
	l 169 120
	h 1
	l 69-73

	M-8 104.75
	l 30-12

	M-8 157
	l 179.5-114.5
	l 96 91
	l-69 47
	l 183 7
	l-31 57

	M-8 184.75
	l 90 4

	M-8 281.75
	l 159-2.25
	m 1-3.5
	l-68-35.5
	l 88.5-26
	l 19 55
	l 190 12
	l-82 32
	l 7-53
	l 94 93
	l 81-32
	l-52-34
	l 80-3

	M 171.5 263.5
	h 1

	M-8 289.5
	h 40

	M-8 306.5
	h 161.5
	m-1 2
	l 14 51
	l-80-19
	l 7-1.75
	l 143-26
"/>

<path stroke="#000" stroke-width="5" d="
	M 57.5 450.5
	h 110

	M 396.5 451.5
	h-110
"/>

<path stroke="#000" stroke-width="3" d="
	M 154 442
	l 17 8
	l-17 8

	M 300.5 443
	l-17 8
	l 17 8
"/>

<text x="195" y="457" font-size="36">v</text>
<text x="206" y="468" font-size="24">d</text>

<text x="426" y="460" font-size="36">E,</text>
<text x="462" y="460" font-size="36">I</text>

</svg>
