<svg height="512pt" viewBox="-23 0 512 512" width="512pt" xmlns="http://www.w3.org/2000/svg"><path d="m236.894531 205c-28.125 0-51 22.878906-51 51s22.878907 51 51 51c28.121094 0 51-22.878906 51-51s-22.878906-51-51-51zm0 0"/><path d="m64 318.707031c0-17.644531-14.355469-32-32-32s-32 14.355469-32 32 14.355469 32 32 32 32-14.355469 32-32zm0 0"/><path d="m415.996094 256c5.097656-5.621094 9.886718-11.257812 14.316406-16.890625 34.382812-43.691406 44.425781-83.152344 28.285156-111.109375-16.136718-27.957031-55.332031-38.988281-110.363281-31.058594-34.136719 4.917969-72.378906 16.734375-111.316406 34.121094-20.523438-9.167969-40.851563-16.777344-60.488281-22.648438 1.953124-5.957031 4.03125-11.707031 6.238281-17.222656 12.03125-30.074218 27.105469-50.632812 42.042969-58.085937 2.984374-12.847657 9.972656-24.175781 19.578124-32.59375-2.449218-.335938-4.917968-.511719-7.398437-.511719-32.28125 0-61.429687 28.429688-82.078125 80.050781-2.660156 6.65625-5.148438 13.621094-7.46875 20.847657-7.417969-1.605469-14.695312-2.933594-21.789062-3.957032-55.023438-7.925781-94.21875 3.101563-110.359376 31.058594-16.140624 27.957031-6.097656 67.417969 28.28125 111.109375 21.332032 27.109375 50.671876 54.328125 85.203126 79.359375 2.328124 22.351562 5.898437 43.753906 10.632812 63.6875-6.136719 1.289062-12.15625 2.363281-18.035156 3.210938-32.019532 4.613281-57.335938 1.847656-71.269532-7.335938-5.699218 1.734375-11.746093 2.679688-18.007812 2.679688-7.015625 0-13.753906-1.191407-20.046875-3.347657.933594 2.28125 2.007813 4.496094 3.242187 6.636719 12.726563 22.046875 39.78125 33.566406 77.640626 33.566406 10.152343 0 21.085937-.832031 32.722656-2.507812 7.09375-1.023438 14.371094-2.351563 21.789062-3.957032 2.316406 7.226563 4.804688 14.195313 7.46875 20.847657 20.644532 51.621093 49.796875 80.050781 82.074219 80.050781 32.28125 0 61.433594-28.429688 82.082031-80.050781 12.808594-32.03125 21.71875-71.050781 26.132813-113.472657 18.191406-13.1875 34.941406-26.980468 49.835937-41.046874 4.1875 4.671874 8.125 9.347656 11.796875 14.011718 20.070313 25.507813 30.332031 48.886719 29.269531 65.558594 9.273438 8.710938 15.871094 20.226562 18.421876 33.1875 1.523437-1.964844 2.921874-4.023438 4.167968-6.1875 16.144532-27.957031 6.097656-67.414062-28.28125-111.109375-4.433594-5.632813-9.222656-11.269531-14.320312-16.890625zm-63.480469-129.363281c40.84375-5.886719 70.789063.230469 80.101563 16.363281 9.316406 16.132812-.359376 45.125-25.878907 77.558594-3.671875 4.664062-7.609375 9.34375-11.796875 14.011718-28.351562-26.769531-63.402344-52.5625-102.347656-75.042968-6.585938-3.800782-13.199219-7.453125-19.820312-10.964844 28.03125-10.867188 55.113281-18.378906 79.742187-21.925781zm-285.460937 93.921875c-25.519532-32.429688-35.191407-61.425782-25.875-77.558594 9.3125-16.132812 39.253906-22.25 80.101562-16.363281 5.878906.84375 11.898438 1.917969 18.035156 3.207031-9.011718 37.9375-13.824218 81.1875-13.824218 126.15625 0 7.601562.144531 15.152344.417968 22.640625-23.425781-18.835937-43.472656-38.53125-58.855468-58.082031zm88.4375 35.441406c0-42.53125 4.480468-83.230469 12.863281-118.707031 34.917969 10.476562 72.40625 26.949219 109.238281 48.214843 36.835938 21.261719 69.84375 45.488282 96.378906 70.492188-26.535156 25-59.542968 49.230469-96.378906 70.492188-36.832031 21.265624-74.320312 37.738281-109.238281 48.214843-8.386719-35.476562-12.863281-76.175781-12.863281-118.707031zm135.625 164.808594c-15.328126 38.316406-35.597657 61.191406-54.226563 61.191406-18.625 0-38.898437-22.875-54.222656-61.191406-2.207031-5.515625-4.285157-11.265625-6.238281-17.222656 37.359374-11.167969 77.21875-28.628907 116.160156-51.113282 6.589844-3.800781 13.058594-7.703125 19.410156-11.683594-4.601562 29.707032-11.640625 56.914063-20.882812 80.019532zm0 0"/><path d="m393.601562 370.164062c-17.648437 0-32 14.355469-32 32 0 17.644532 14.351563 32 32 32 17.644532 0 32-14.355468 32-32 0-17.644531-14.359374-32-32-32zm0 0"/><path d="m285.09375 79.132812c17.644531 0 32-14.355468 32-32 0-17.644531-14.355469-32-32-32s-32 14.355469-32 32c0 17.644532 14.355469 32 32 32zm0 0"/></svg>